<svg t="1743076531295" class="icon" viewBox="0 0 1024 1024" version="1.1" xmlns="http://www.w3.org/2000/svg" p-id="4726" width="200" height="200"><path d="M1023.902757 512.000512c5.119033 317.380015-194.523235 517.022283-511.903251 511.90325-317.380015 2.559516-517.022283-194.523235-511.90325-511.90325C-5.022777 192.06098 194.619491-5.021771 511.999506 0.097262c317.380015-5.119033 517.022283 191.963719 511.903251 511.90325z" fill="#4279F5" p-id="4727"></path><path d="M1021.34324 565.750353C1005.986143 340.512923 852.415168 199.739529 614.380156 204.858562c-253.392109-5.119033-414.641633 153.570975-409.5226 409.5226-5.119033 238.035011 135.654361 391.605986 360.891792 406.963084 268.749206-15.357098 440.236795-186.844686 455.593892-455.593893z" fill="#3F6FF5" p-id="4728"></path><path d="M1016.224208 629.738259c-30.714195-138.213878-138.213878-222.677914-299.463402-220.118397-189.404203-2.559516-309.701466 117.737748-307.14195 307.14195-2.559516 158.690008 81.90452 268.749206 220.118398 299.463401 209.880333-35.833228 350.653726-176.606621 386.486954-386.486954z" fill="#3C67F5" p-id="4729"></path><path d="M998.307594 703.964231c-33.273711-58.868874-94.702101-92.142585-179.166138-92.142585-127.975813-2.559516-207.320816 76.785488-204.7613 204.7613-2.559516 81.90452 33.273711 145.892426 92.142585 179.166137 140.773394-40.95226 250.832593-151.011459 291.784853-291.784852z" fill="#395EF5" p-id="4730"></path><path d="M286.762076 747.476007c-51.190325 0-94.702101-43.511776-94.702101-94.702101v-212.439849c0-51.190325 43.511776-94.702101 94.702101-94.702101s94.702101 43.511776 94.702101 94.702101v212.439849c0 51.190325-43.511776 94.702101-94.702101 94.702101z m0-355.772759c-25.595163 0-48.630809 20.47613-48.630809 48.630809v212.439849c0 25.595163 20.47613 48.630809 48.630809 48.630809s48.630809-20.47613 48.630809-48.630809v-212.439849c0-28.154679-23.035646-48.630809-48.630809-48.630809zM511.999506 747.476007c-51.190325 0-94.702101-43.511776-94.702101-94.702101V297.001147c0-51.190325 43.511776-94.702101 94.702101-94.702102s94.702101 43.511776 94.702102 94.702102v355.772759c0 51.190325-43.511776 94.702101-94.702102 94.702101z m0-499.105669c-25.595163 0-48.630809 20.47613-48.630808 48.630809v355.772759c0 25.595163 20.47613 48.630809 48.630808 48.630809s48.630809-20.47613 48.630809-48.630809V297.001147c0-28.154679-23.035646-48.630809-48.630809-48.630809zM737.236936 747.476007c-51.190325 0-94.702101-43.511776-94.702101-94.702101v-143.33291c0-51.190325 43.511776-94.702101 94.702101-94.702102s94.702101 43.511776 94.702102 94.702102v143.33291c0 51.190325-43.511776 94.702101-94.702102 94.702101z m0-286.66582c-25.595163 0-48.630809 20.47613-48.630808 48.630809v143.33291c0 25.595163 20.47613 48.630809 48.630808 48.630809 25.595163 0 48.630809-20.47613 48.630809-48.630809v-143.33291c-2.559516-25.595163-23.035646-48.630809-48.630809-48.630809zM808.903391 842.178108H215.095621c-12.797581 0-23.035646-10.238065-23.035646-23.035646s10.238065-23.035646 23.035646-23.035646h591.248254c12.797581 0 23.035646 10.238065 23.035646 23.035646 2.559516 10.238065-7.678549 23.035646-20.47613 23.035646z" fill="#FFFFFF" p-id="4731"></path></svg>